<svg width="100" height="100" viewBox="0 0 100 100" fill="none" xmlns="http://www.w3.org/2000/svg">
<g clip-path="url(#clip0_54_15)">
<path d="M74.2874 40.6887C67.5616 33.9528 56.672 33.9528 49.9462 40.6887C43.2203 47.4245 43.2203 58.3302 49.9462 65.066C56.672 71.8019 67.5616 71.8019 74.2874 65.066C80.8532 58.3302 81.0133 47.4245 74.2874 40.6887ZM72.686 50.6321L65.1595 58.1698C64.3588 58.9717 63.0776 58.9717 62.2769 58.1698L58.4336 54.3207L54.4301 58.3302C53.6294 59.1321 52.3483 59.1321 51.5476 58.3302C50.7469 57.5283 50.7469 56.2453 51.5476 55.4434L56.9923 49.9906C57.793 49.1887 59.0741 49.1887 59.8748 49.9906L63.7182 53.8396L69.8035 47.7453C70.6042 46.9434 71.8853 46.9434 72.686 47.7453C73.4867 48.5472 73.4867 49.8302 72.686 50.6321Z" fill="#9c6bff"/>
<path d="M86.458 77.4149C84.3762 79.4999 81.1734 79.4999 79.0916 77.4149L72.686 70.9999C75.7287 69.2357 78.2909 66.6697 80.0524 63.6225L86.2979 69.8772C88.5399 72.1225 88.5399 75.4904 86.458 77.4149Z" fill="#9c6bff"/>
<path d="M31.3699 31.3866H21.121L31.3699 21.1225V31.3866Z" fill="#9c6bff"/>
<path d="M62.1168 31.5472C64.1986 31.5472 66.2804 31.8679 68.3623 32.5094V21.9245C68.3623 20.8019 67.4014 20 66.4406 20H35.3734V33.4717C35.3734 34.5943 34.4126 35.3962 33.4517 35.3962H20V86.0755C20 87.1981 20.9608 88 21.9217 88H66.2804C67.4014 88 68.2021 87.0377 68.2021 86.0755V73.0849C66.1203 73.7264 64.0385 74.0472 61.9567 74.0472C50.4266 74.0472 40.8182 64.5849 40.8182 52.8774C40.8182 41.1698 50.2664 31.5472 62.1168 31.5472ZM35.2133 71.9623H26.886C25.765 71.9623 24.9643 71 24.9643 70.0377C24.9643 69.0755 25.9252 68.1132 26.886 68.1132H35.2133C36.3343 68.1132 37.135 69.0755 37.135 70.0377C37.135 71 36.3343 71.9623 35.2133 71.9623ZM35.2133 64.1038H26.886C25.765 64.1038 24.9643 63.1415 24.9643 62.1792C24.9643 61.0566 25.9252 60.2547 26.886 60.2547H35.2133C36.3343 60.2547 37.135 61.217 37.135 62.1792C37.2951 63.1415 36.3343 64.1038 35.2133 64.1038ZM35.2133 56.0849H26.886C25.765 56.0849 24.9643 55.1226 24.9643 54.1604C24.9643 53.1981 25.765 52.0755 26.886 52.0755H35.2133C36.3343 52.0755 37.135 53.0377 37.135 54C37.135 54.9623 36.3343 56.0849 35.2133 56.0849ZM35.2133 48.066H26.886C25.765 48.066 24.9643 47.1038 24.9643 46.1415C24.9643 45.1792 25.765 44.0566 26.886 44.0566H35.2133C36.3343 44.0566 37.135 45.0189 37.135 45.9811C37.135 46.9434 36.3343 48.066 35.2133 48.066Z" fill="#9c6bff"/>
</g>
<defs>
<clipPath id="clip0_54_15">
<rect width="68" height="68" fill="#9c6bff" transform="translate(20 20)"/>
</clipPath>
</defs>
</svg>
