<svg width="71" height="70" viewBox="0 0 71 70" fill="none" xmlns="http://www.w3.org/2000/svg">
<g clip-path="url(#clip0_59_240)">
<path d="M12.3287 28.6806H0.5V45.5324H12.3287V28.6806Z" fill="white"/>
<path d="M24.8055 17.338V45.5324H31.5139C32.3889 42.0486 34.1551 38.8403 36.6342 36.2477V17.338H24.8055Z" fill="white"/>
<path d="M49.1111 0.810188V29.7662C50.0671 29.6204 51.0231 29.5556 51.9791 29.5556C55.0254 29.5394 58.0231 30.2199 60.7778 31.5162V0.810188H49.1111Z" fill="white"/>
<path d="M51.9792 32.1481C41.7546 32.1481 33.4583 40.4444 33.4583 50.669C33.4583 60.8935 41.7546 69.1898 51.9792 69.1898C62.2037 69.1898 70.5 60.8935 70.5 50.669C70.4838 40.4444 62.2037 32.1644 51.9792 32.1481ZM64.6666 57.037C64.6666 59.5486 62.6412 61.5741 60.1296 61.5741H43.9259C41.4143 61.5741 39.3889 59.5486 39.3889 57.037V44.7222C39.3889 42.2106 41.4143 40.1852 43.9259 40.1852H60.1296C62.6412 40.1852 64.6666 42.2106 64.6666 44.7222V57.037Z" fill="white"/>
<path d="M57.4885 46.3426H62.0741V44.7222C62.0741 43.6366 61.1991 42.7778 60.1297 42.7778H43.926C42.8565 42.7778 41.9815 43.6366 41.9815 44.7222V57.037C41.9815 58.1065 42.8565 58.9815 43.926 58.9815H60.1297C61.1991 58.9815 62.0741 58.1065 62.0741 57.037V55.4167H57.4885C55.8843 55.4167 54.6204 54.0718 54.6204 52.4676V49.3241C54.6204 47.7199 55.8843 46.3426 57.4885 46.3426Z" fill="white"/>
<path d="M57.4884 48.9352C57.3102 48.9352 57.213 49.1458 57.213 49.3241V52.4676C57.213 52.6458 57.3102 52.8241 57.4884 52.8241H62.0741V48.9352H57.4884Z" fill="white"/>
</g>
<defs>
<clipPath id="clip0_59_240">
<rect width="70" height="70" fill="white" transform="translate(0.5)"/>
</clipPath>
</defs>
</svg>
