<svg width="100" height="100" viewBox="0 0 100 100" fill="none" xmlns="http://www.w3.org/2000/svg">
<g clip-path="url(#clip0_54_21)">
<path d="M76.9653 44.112V65.666C76.9653 67.9705 78.8392 69.7328 80.9809 69.7328C83.2563 69.7328 84.9964 67.835 84.9964 65.666V52.2456C85.1303 47.7721 81.5163 44.112 76.9653 44.112Z" fill="#9c6bff"/>
<path d="M17 52.2456V65.5305C17 67.835 18.8739 69.5973 21.0155 69.5973C23.1572 69.5973 25.0311 67.6994 25.0311 65.5305V44.112C20.614 44.112 17 47.7721 17 52.2456Z" fill="#9c6bff"/>
<path d="M72.9498 43.9764H29.0466V75.9686H33.5975C33.8652 75.5619 33.8652 75.5619 36.2746 73.3929C37.2115 72.5796 37.2115 71.224 36.2746 70.4106L33.9991 68.3772C33.3298 67.6994 33.196 66.7505 33.5975 65.8016L37.0777 59.7014C37.6131 58.888 38.55 58.4814 39.487 58.7525L42.2979 59.7014C43.3687 60.1081 44.5733 59.4303 44.841 58.2102L45.5103 55.2279C45.6441 54.279 46.5811 53.6012 47.5181 53.6012H54.4783C55.4153 53.6012 56.2184 54.279 56.4861 55.2279L57.1553 58.2102C57.4231 59.4303 58.6277 60.1081 59.6985 59.7014L62.5094 58.7525C63.4464 58.4814 64.3833 58.888 64.9187 59.7014L68.3988 65.8016C68.9343 66.6149 68.6665 67.6994 67.9973 68.3772L65.7218 70.4106C64.7849 71.224 64.7849 72.5796 65.7218 73.3929C68.1311 75.5619 68.1311 75.5619 68.3988 75.9686H72.9498V43.9764Z" fill="#9c6bff"/>
<path d="M63.1787 67.2927L64.2495 66.3438L62.2417 63.0904L60.9032 63.497C57.5569 64.5815 53.9429 62.5481 53.1398 59.0236L52.8721 57.668H49.1243L48.8566 59.0236C48.1873 62.5481 44.5734 64.7171 41.0932 63.497L39.7547 63.0904L37.8808 66.3438L38.9516 67.2927C41.6286 69.7328 41.6286 73.9352 38.9516 76.3752L37.8808 77.3242L39.7547 80.5776L41.0932 80.1709C44.4395 79.0864 48.0535 81.1198 48.8566 84.6444L49.1243 86H52.8721L53.1398 84.6444C53.8091 81.1198 57.4231 78.9509 60.9032 80.1709L62.2417 80.5776L64.1156 77.3242L63.0448 76.3752C60.5016 73.9352 60.5016 69.7328 63.1787 67.2927ZM56.2184 74.8841C54.6122 77.7308 50.8644 78.8153 48.0535 77.053C45.2426 75.4263 44.1718 71.6306 45.9119 68.7839C47.5181 65.9371 51.2659 64.8526 54.0768 66.6149C56.8877 68.2416 57.9585 71.9018 56.2184 74.8841Z" fill="#9c6bff"/>
<path d="M52.069 70.0039C51.1321 69.4617 49.9274 69.7328 49.392 70.6817C48.8566 71.6306 49.1243 72.8507 50.0613 73.3929C50.9982 73.9351 52.2029 73.664 52.7383 72.7151C53.4075 71.9017 53.006 70.5461 52.069 70.0039Z" fill="#9c6bff"/>
<path d="M39.0854 30.4204C40.1943 30.4204 41.0932 29.5101 41.0932 28.387C41.0932 27.264 40.1943 26.3536 39.0854 26.3536C37.9766 26.3536 37.0777 27.264 37.0777 28.387C37.0777 29.5101 37.9766 30.4204 39.0854 30.4204Z" fill="#9c6bff"/>
<path d="M63.0448 30.4204C64.1537 30.4204 65.0526 29.5101 65.0526 28.387C65.0526 27.264 64.1537 26.3536 63.0448 26.3536C61.9359 26.3536 61.037 27.264 61.037 28.387C61.037 29.5101 61.9359 30.4204 63.0448 30.4204Z" fill="#9c6bff"/>
<path d="M72.9498 28.5226C72.9498 22.1513 67.8634 17.1356 61.7063 17H40.424C34.2668 17 29.0466 22.0157 29.0466 28.387V39.7741H72.9498V28.5226ZM39.0854 34.4872C35.7392 34.4872 33.0621 31.776 33.0621 28.387C33.0621 24.998 35.7392 22.4224 39.0854 22.4224C42.4317 22.4224 45.1087 25.1336 45.1087 28.387C45.1087 31.6405 42.4317 34.4872 39.0854 34.4872ZM53.006 34.4872H48.9904C47.9196 34.4872 46.9827 33.5383 46.9827 32.4538C46.9827 31.3694 47.9196 30.4204 48.9904 30.4204H53.006C54.0768 30.4204 55.0137 31.3694 55.0137 32.4538C55.0137 33.5383 54.2106 34.4872 53.006 34.4872ZM63.0448 34.4872C59.6985 34.4872 57.0215 31.776 57.0215 28.387C57.0215 24.998 59.6985 22.2868 63.0448 22.2868C66.3911 22.2868 69.0681 24.998 69.0681 28.387C69.0681 31.776 66.3911 34.4872 63.0448 34.4872Z" fill="#9c6bff"/>
</g>
<defs>
<clipPath id="clip0_54_21">
<rect width="68" height="69" fill="#9c6bff" transform="translate(17 17)"/>
</clipPath>
</defs>
</svg>
