<svg width="100" height="100" viewBox="0 0 100 100" fill="none" xmlns="http://www.w3.org/2000/svg">
<g clip-path="url(#clip0_54_7)">
<path fill-rule="evenodd" clip-rule="evenodd" d="M25.1734 36.0263H27.5882C28.8885 38.2554 30.7461 40.113 32.7895 41.7848H25.3591C23.873 41.7848 22.5727 40.6703 22.5727 39.1842V38.9985C22.387 37.3266 23.5015 36.0263 25.1734 36.0263ZM71.7987 36.0263V75.9644H69.9412V46.0573C69.9412 43.6424 68.0836 41.7848 65.6687 41.7848H59.1672C61.2105 40.113 62.8823 38.2554 64.3684 36.0263H71.7987ZM64.5542 67.9768V61.661H62.3251C60.6532 61.661 59.1672 62.9613 59.1672 64.8189C59.1672 66.4907 60.4675 67.9768 62.3251 67.9768H64.5542ZM17 38.9985V82.6517C17 85.6238 19.4148 88.0387 22.387 88.0387H65.6687C68.0836 88.0387 69.9412 86.1811 69.9412 83.7663V81.5372H72.7275C75.1424 81.5372 77 79.6796 77 77.2647V35.0975C77 32.6827 75.1424 30.8251 72.7275 30.8251H66.7833C67.3405 28.7817 67.7121 26.7384 67.7121 24.695C67.7121 12.6207 57.8669 2.9613 45.9783 2.9613C34.0898 2.9613 24.2446 12.6207 24.2446 24.695C24.2446 26.7384 24.6161 28.7817 25.1734 30.8251C20.7152 30.8251 17 34.5403 17 38.9985ZM48.5789 36.5836V37.1409C48.5789 38.6269 47.4644 39.7415 45.9783 39.7415C44.4922 39.7415 43.3777 38.6269 43.3777 37.1409V36.5836C40.5913 35.469 38.7337 32.6827 38.7337 29.5248C38.7337 28.0387 39.8483 26.9242 41.3344 26.9242C42.8204 26.9242 43.935 28.0387 43.935 29.5248C43.935 30.8251 44.8638 31.7539 45.9783 31.7539C47.0929 31.7539 48.0217 30.8251 48.0217 29.5248C48.0217 28.2245 47.0929 27.2957 45.9783 27.2957C41.8916 27.2957 38.7337 23.952 38.7337 19.6796C38.7337 16.5217 40.5913 13.7353 43.3777 12.6207V12.0635C43.3777 10.5774 44.4922 9.46285 45.9783 9.46285C47.4644 9.46285 48.5789 10.5774 48.5789 12.0635V12.6207C51.3653 13.7353 53.2229 16.5217 53.2229 19.6796C53.2229 21.1656 52.1083 22.2802 50.6223 22.2802C49.1362 22.2802 48.0217 21.1656 48.0217 19.6796C48.0217 18.3793 47.0929 17.4505 45.9783 17.4505C44.8638 17.4505 43.935 18.565 43.935 19.6796C43.935 20.9799 44.8638 21.9087 45.9783 21.9087C50.065 21.9087 53.2229 25.2523 53.2229 29.5248C53.2229 32.6827 51.3653 35.469 48.5789 36.5836Z" fill="#9c6bff"/>
</g>
<defs>
<clipPath id="clip0_54_7">
<rect width="60" height="85" fill="#9c6bff" transform="translate(17 3)"/>
</clipPath>
</defs>
</svg>
