<svg width="100" height="100" viewBox="0 0 100 100" fill="none" xmlns="http://www.w3.org/2000/svg">
<g clip-path="url(#clip0_54_27)">
<path d="M61.7886 44.5975H39.7746C33.6523 44.5975 28.8327 49.5443 28.8327 55.5324V82.9999H72.8607V55.6626C72.7305 49.5443 67.7806 44.5975 61.7886 44.5975ZM59.0531 58.3964H48.1112V61.1301H53.5822C56.5782 61.1301 59.0531 63.6035 59.0531 66.5975V69.3313C59.0531 72.3253 56.5782 74.7987 53.5822 74.7987V77.5324H48.1112V74.7987H42.51V69.3313H53.4519V66.5975H47.981C44.985 66.5975 42.51 64.1242 42.51 61.1301V58.3964C42.51 55.4023 44.985 52.9289 47.981 52.9289V50.1952H53.4519V52.9289H58.9229V58.3964H59.0531Z" fill="#9c6bff"/>
<path d="M50.8467 17.1301C44.5942 17.1301 37.5601 21.2958 37.0391 30.6686C37.0391 30.7988 37.0391 30.7988 37.0391 30.9289C37.2996 39.781 44.0731 44.4674 50.7164 44.5976H50.8467C57.0992 44.5976 64.003 40.4319 64.524 31.0591C64.524 30.9289 64.524 30.9289 64.524 30.7988C64.2635 21.9467 57.3597 17.2603 50.8467 17.1301Z" fill="#9c6bff"/>
<path d="M81.0671 29.497C78.8527 29.497 76.8988 27.6746 76.8988 25.3314C76.8988 24.5503 76.2475 23.8994 75.4659 23.8994C74.6844 23.8994 74.0331 24.5503 74.0331 25.3314C74.0331 27.5444 72.2094 29.497 69.8647 29.497C69.0832 29.497 68.4319 30.1479 68.4319 30.929C68.4319 31.7101 69.0832 32.361 69.8647 32.361C72.0791 32.361 74.0331 34.1834 74.0331 36.5266C74.0331 37.3077 74.6844 37.9586 75.4659 37.9586C76.2475 37.9586 76.8988 37.3077 76.8988 36.5266C76.8988 34.3136 78.7224 32.361 81.0671 32.361C81.8487 32.361 82.5 31.7101 82.5 30.929C82.5 30.1479 81.7184 29.497 81.0671 29.497Z" fill="#9c6bff"/>
<path d="M35.6062 22.5976C33.3917 22.5976 31.4378 20.7751 31.4378 18.432C31.4378 17.6509 30.7865 17 30.005 17C29.2234 17 28.7024 17.7811 28.7024 18.5621C28.7024 20.7751 26.8787 22.7278 24.534 22.7278C23.7525 22.7278 23.1012 23.3787 23.1012 24.1598C23.1012 24.9408 23.7525 25.5917 24.534 25.5917C26.7485 25.5917 28.7024 27.4142 28.7024 29.7574C28.7024 30.5385 29.3537 31.1894 30.1352 31.1894C30.9168 31.1894 31.5681 30.5385 31.5681 29.7574C31.5681 27.5444 33.3917 25.5917 35.7364 25.5917C36.518 25.5917 37.1693 24.9408 37.1693 24.1598C37.1693 23.3787 36.3877 22.5976 35.6062 22.5976Z" fill="#9c6bff"/>
<path d="M30.1353 44.5977C27.9208 44.5977 25.9669 42.7752 25.9669 40.432C25.9669 39.6509 25.3156 39.0001 24.5341 39.0001C23.7525 39.0001 23.1012 39.6509 23.1012 40.432C23.1012 42.645 21.2775 44.5977 18.9329 44.5977C18.1513 44.5977 17.5 45.2486 17.5 46.0296C17.5 46.8107 18.1513 47.4616 18.9329 47.4616C21.1473 47.4616 23.1012 49.2841 23.1012 51.6273C23.1012 52.4083 23.7525 53.0592 24.5341 53.0592C25.3156 53.0592 25.9669 52.4083 25.9669 51.6273C25.9669 49.4143 27.7906 47.4616 30.1353 47.4616C30.9168 47.4616 31.5681 46.8107 31.5681 46.0296C31.5681 45.2486 30.9168 44.5977 30.1353 44.5977Z" fill="#9c6bff"/>
</g>
<defs>
<clipPath id="clip0_54_27">
<rect width="65" height="66" fill="#9c6bff" transform="translate(17.5 17)"/>
</clipPath>
</defs>
</svg>
