<svg width="60" height="78" viewBox="0 0 60 78" fill="none" xmlns="http://www.w3.org/2000/svg">
<path d="M51.2247 9.46848C50.8822 8.32877 49.5517 6.0348 46.9689 5.9766M46.9689 5.9766C45.5503 5.90385 42.7131 6.50038 42.7131 9.46848C42.7131 10.6082 43.5642 12.8731 46.9689 12.8149C48.2652 12.9361 50.9312 13.8333 51.2247 16.4523C51.3225 17.592 50.6083 19.8423 46.9689 19.7259M46.9689 5.9766V3.64868M46.9689 19.7259C45.5503 19.7259 42.6104 18.9548 42.1995 15.8703M46.9689 19.7259V22.1266" stroke="#D2CBE1" stroke-width="1.3" stroke-linecap="round" stroke-linejoin="round"/>
<circle cx="46.7163" cy="12.8876" r="11.7292" stroke="#8C76B8" stroke-width="2"/>
<path d="M32.55 6.83093H1.44556V13.8115M1.44556 28.4911V76.8416H51.9518V28.4911H1.44556ZM1.44556 28.4911V13.8115M1.44556 13.8115H30.7022" stroke="#462290" stroke-width="2" stroke-linecap="round"/>
<rect x="38.1773" y="36.7876" width="6.81239" height="6.81239" rx="3.4062" stroke="black" stroke-width="1.4"/>
<rect x="38.1773" y="36.7876" width="6.81239" height="6.81239" rx="3.4062" stroke="black" stroke-width="1.4"/>
<rect x="38.1773" y="36.7876" width="6.81239" height="6.81239" rx="3.4062" stroke="#8C76B8" stroke-width="1.4"/>
<rect x="23.1897" y="36.7876" width="6.81239" height="6.81239" rx="3.4062" stroke="black" stroke-width="1.4"/>
<rect x="23.1897" y="36.7876" width="6.81239" height="6.81239" rx="3.4062" stroke="black" stroke-width="1.4"/>
<rect x="23.1897" y="36.7876" width="6.81239" height="6.81239" rx="3.4062" stroke="#8C76B8" stroke-width="1.4"/>
<rect x="8.2022" y="36.7876" width="6.81239" height="6.81239" rx="3.4062" stroke="black" stroke-width="1.4"/>
<rect x="8.2022" y="36.7876" width="6.81239" height="6.81239" rx="3.4062" stroke="black" stroke-width="1.4"/>
<rect x="8.2022" y="36.7876" width="6.81239" height="6.81239" rx="3.4062" stroke="#8C76B8" stroke-width="1.4"/>
<rect x="8.2022" y="49.9274" width="6.81239" height="6.81239" rx="3.4062" stroke="black" stroke-width="1.4"/>
<rect x="8.2022" y="49.9274" width="6.81239" height="6.81239" rx="3.4062" stroke="black" stroke-width="1.4"/>
<rect x="8.2022" y="49.9274" width="6.81239" height="6.81239" rx="3.4062" stroke="#8C76B8" stroke-width="1.4"/>
<rect x="23.1897" y="49.9274" width="6.81239" height="6.81239" rx="3.4062" stroke="black" stroke-width="1.4"/>
<rect x="23.1897" y="49.9274" width="6.81239" height="6.81239" rx="3.4062" stroke="black" stroke-width="1.4"/>
<rect x="23.1897" y="49.9274" width="6.81239" height="6.81239" rx="3.4062" stroke="#8C76B8" stroke-width="1.4"/>
<rect x="38.1773" y="49.9274" width="6.81239" height="6.81239" rx="3.4062" stroke="black" stroke-width="1.4"/>
<rect x="38.1773" y="49.9274" width="6.81239" height="6.81239" rx="3.4062" stroke="black" stroke-width="1.4"/>
<rect x="38.1773" y="49.9274" width="6.81239" height="6.81239" rx="3.4062" stroke="#8C76B8" stroke-width="1.4"/>
<rect x="38.1773" y="63.0672" width="6.81239" height="6.81239" rx="3.4062" stroke="black" stroke-width="1.4"/>
<rect x="38.1773" y="63.0672" width="6.81239" height="6.81239" rx="3.4062" stroke="black" stroke-width="1.4"/>
<rect x="38.1773" y="63.0672" width="6.81239" height="6.81239" rx="3.4062" stroke="#8C76B8" stroke-width="1.4"/>
<rect x="23.1897" y="63.0672" width="6.81239" height="6.81239" rx="3.4062" stroke="black" stroke-width="1.4"/>
<rect x="23.1897" y="63.0672" width="6.81239" height="6.81239" rx="3.4062" stroke="black" stroke-width="1.4"/>
<rect x="23.1897" y="63.0672" width="6.81239" height="6.81239" rx="3.4062" stroke="#8C76B8" stroke-width="1.4"/>
<rect x="8.2022" y="63.0672" width="6.81239" height="6.81239" rx="3.4062" stroke="black" stroke-width="1.4"/>
<rect x="8.2022" y="63.0672" width="6.81239" height="6.81239" rx="3.4062" stroke="black" stroke-width="1.4"/>
<rect x="8.2022" y="63.0672" width="6.81239" height="6.81239" rx="3.4062" stroke="#8C76B8" stroke-width="1.4"/>
</svg>
