<svg width="59" height="83" viewBox="0 0 59 83" fill="none" xmlns="http://www.w3.org/2000/svg">
<path d="M23.0266 54.3797L1.44556 75.9607L6.86848 81.8263L23.0266 66.0002L34.8685 77.3994L49.5878 63.1228L53.0187 66.0002L57.4456 49.1781L39.9594 53.937L43.6116 57.4785L34.8685 66.0002L23.0266 54.3797Z" stroke="#462290" stroke-width="2" stroke-linejoin="round"/>
<path d="M34.0842 31.1212C33.6982 29.8242 32.1986 27.2137 29.2875 27.1474M29.2875 27.1474C27.6886 27.0647 24.4908 27.7435 24.4908 31.1212C24.4908 32.4182 25.4501 34.9956 29.2875 34.9293C30.7485 35.0673 33.7534 36.0883 34.0842 39.0686C34.1945 40.3656 33.3895 42.9265 29.2875 42.794M29.2875 27.1474V24.4983M29.2875 42.794C27.6886 42.794 24.375 41.9165 23.9119 38.4064M29.2875 42.794V45.526" stroke="#D2CBE1" stroke-width="2" stroke-linecap="round" stroke-linejoin="round"/>
<circle cx="29.0028" cy="35.1228" r="13.8874" stroke="#8C76B8"/>
<path d="M14.837 34.9014C10.2626 34.9383 1.29076 32.3117 1.99906 21.5101C2.81065 16.8619 7.20064 8.62792 18.2678 12.8777C18.6736 8.37707 21.8979 -0.225823 31.5485 1.36785C34.6473 1.69986 40.8228 4.46665 40.7342 12.8777C45.9727 11.1439 55.8963 12.8777 55.8963 25.4943C55.8963 29.1465 52.8417 34.9014 43.7224 34.9014" stroke="#462290" stroke-width="2"/>
</svg>
