<svg width="69" height="75" viewBox="0 0 69 75" fill="none" xmlns="http://www.w3.org/2000/svg">
<path d="M62.2076 50.2263H47.3944C46.7124 50.1172 45.3484 50.3572 45.3484 52.1905V59.0651C45.3484 59.7744 45.7576 61.1275 47.3944 60.8656H62.2076" stroke="#D2CBE1" stroke-width="2"/>
<path d="M42.4019 20.1907C42.02 18.9085 40.5359 16.3278 37.6551 16.2623M37.6551 16.2623C36.0729 16.1804 32.9083 16.8515 32.9083 20.1907C32.9083 21.4728 33.8577 24.0208 37.6551 23.9553C39.101 24.0917 42.0745 25.1011 42.4019 28.0474C42.511 29.3296 41.7144 31.8612 37.6551 31.7302M37.6551 16.2623V13.6434M37.6551 31.7302C36.0729 31.7302 32.7938 30.8627 32.3354 27.3927M37.6551 31.7302V34.431" stroke="#D2CBE1" stroke-width="2" stroke-linecap="round" stroke-linejoin="round"/>
<path d="M1.64515 30.4208V70.6047C1.59059 71.4231 2.00525 73.0927 4.10038 73.2236H62.453C62.7258 72.9235 63.2551 71.9796 63.1896 70.6047V38.2775C63.0805 37.7865 62.6003 36.8208 61.5528 36.8862H8.35611C6.11912 36.1497 1.64515 33.8254 1.64515 30.4208ZM1.64515 30.4208C1.31778 27.5563 2.20166 21.4674 8.35611 20.027H16.3765" stroke="#462290" stroke-width="2"/>
<path d="M7.37402 5.45927L11.3024 1.77643M11.3024 1.77643L14.9852 5.45927M11.3024 1.77643V15.6894" stroke="#8C76B8" stroke-width="2" stroke-linecap="round"/>
<path d="M59.8342 5.45927L63.7626 1.77643M63.7626 1.77643L67.4454 5.45927M63.7626 1.77643V15.6894" stroke="#8C76B8" stroke-width="2" stroke-linecap="round"/>
<path d="M38.1313 2.43799C49.8061 2.7306 59.1791 12.1789 59.1792 23.7915C59.1792 28.7634 57.461 33.3386 54.5796 36.9683H51.9351C55.1901 33.5092 57.1792 28.8759 57.1792 23.7915C57.1791 13.1207 48.4232 4.43137 37.5737 4.43115C26.7241 4.43115 17.9674 13.1206 17.9673 23.7915C17.9673 28.8758 19.9564 33.5092 23.2114 36.9683H20.5688C17.687 33.3384 15.9673 28.7638 15.9673 23.7915C15.9674 11.9945 25.6411 2.43115 37.5737 2.43115L38.1313 2.43799Z" fill="#462290"/>
<path d="M37.573 9.69836C45.6184 9.69836 52.1412 16.1575 52.1414 24.1251L52.1365 24.4972C52.0158 29.2187 49.6042 33.3761 45.9617 35.921H44.0603C48.2814 33.6427 51.1414 29.2106 51.1414 24.1251C51.1412 16.7189 45.0753 10.6984 37.573 10.6984C30.0708 10.6985 24.0058 16.719 24.0056 24.1251C24.0056 29.2108 26.8655 33.6428 31.0867 35.921H29.1843C25.4468 33.3094 23.0056 28.9996 23.0056 24.1251C23.0058 16.1576 29.5277 9.69854 37.573 9.69836Z" fill="#8C76B8"/>
</svg>
