<svg width="70" height="70" viewBox="0 0 70 70" fill="none" xmlns="http://www.w3.org/2000/svg">
<path d="M26.25 20.4167C26.25 18.096 27.1719 15.8704 28.8128 14.2295C30.4538 12.5885 32.6794 11.6667 35 11.6667C37.3206 11.6667 39.5462 12.5885 41.1872 14.2295C42.8281 15.8704 43.75 18.096 43.75 20.4167H52.5C52.5 15.7754 50.6563 11.3242 47.3744 8.0423C44.0925 4.76041 39.6413 2.91666 35 2.91666C30.3587 2.91666 25.9075 4.76041 22.6256 8.0423C19.3437 11.3242 17.5 15.7754 17.5 20.4167H26.25Z" fill="#9c6bff"/>
<path d="M35 35C32.981 35 31.0073 35.5987 29.3285 36.7204C27.6498 37.8421 26.3414 39.4364 25.5687 41.3018C24.7961 43.1671 24.5939 45.2197 24.9878 47.1999C25.3817 49.1801 26.354 50.9991 27.7816 52.4267C29.2093 53.8544 31.0282 54.8266 33.0084 55.2205C34.9887 55.6144 37.0412 55.4122 38.9066 54.6396C40.7719 53.867 42.3662 52.5585 43.4879 50.8798C44.6096 49.201 45.2083 47.2274 45.2083 45.2083C45.2083 42.5009 44.1328 39.9044 42.2184 37.99C40.3039 36.0755 37.7074 35 35 35ZM34.2708 43.75H35.7292C36.6961 43.6533 37.6618 43.9447 38.4139 44.56C39.166 45.1754 39.6429 46.0643 39.7396 47.0312C39.8363 47.9982 39.5449 48.9639 38.9295 49.716C38.3142 50.4681 37.4253 50.945 36.4583 51.0417V52.5C36.4583 52.8868 36.3047 53.2577 36.0312 53.5312C35.7577 53.8047 35.3868 53.9583 35 53.9583C34.6132 53.9583 34.2423 53.8047 33.9688 53.5312C33.6953 53.2577 33.5417 52.8868 33.5417 52.5V51.0417H32.0833C31.6966 51.0417 31.3256 50.888 31.0521 50.6145C30.7786 50.341 30.625 49.9701 30.625 49.5833C30.625 49.1966 30.7786 48.8256 31.0521 48.5521C31.3256 48.2786 31.6966 48.125 32.0833 48.125H35.7292C35.9225 48.125 36.108 48.0482 36.2448 47.9114C36.3815 47.7747 36.4583 47.5892 36.4583 47.3958C36.4583 47.2024 36.3815 47.017 36.2448 46.8802C36.108 46.7435 35.9225 46.6667 35.7292 46.6667H34.2708C33.3667 46.6676 32.4945 46.3325 31.8235 45.7265C31.1525 45.1205 30.7307 44.2868 30.6398 43.3872C30.5489 42.4877 30.7956 41.5865 31.3318 40.8585C31.868 40.1306 32.6556 39.6278 33.5417 39.4479V37.9167C33.5417 37.5299 33.6953 37.159 33.9688 36.8855C34.2423 36.612 34.6132 36.4583 35 36.4583C35.3868 36.4583 35.7577 36.612 36.0312 36.8855C36.3047 37.159 36.4583 37.5299 36.4583 37.9167V39.375H37.9167C38.3034 39.375 38.6744 39.5286 38.9479 39.8021C39.2214 40.0756 39.375 40.4466 39.375 40.8333C39.375 41.2201 39.2214 41.591 38.9479 41.8645C38.6744 42.138 38.3034 42.2917 37.9167 42.2917H34.2708C34.0774 42.2917 33.892 42.3685 33.7552 42.5052C33.6185 42.642 33.5417 42.8274 33.5417 43.0208C33.5417 43.2142 33.6185 43.3997 33.7552 43.5364C33.892 43.6732 34.0774 43.75 34.2708 43.75Z" fill="#9c6bff"/>
<path d="M49.2333 23.3333H20.7667C18.7412 23.3372 16.7997 24.1435 15.3674 25.5758C13.9352 27.008 13.1289 28.9495 13.125 30.975V59.4417C13.1289 61.4672 13.9352 63.4086 15.3674 64.8409C16.7997 66.2731 18.7412 67.0795 20.7667 67.0833H49.2333C51.2588 67.0795 53.2003 66.2731 54.6325 64.8409C56.0648 63.4086 56.8711 61.4672 56.875 59.4417V30.975C56.8711 28.9495 56.0648 27.008 54.6325 25.5758C53.2003 24.1435 51.2588 23.3372 49.2333 23.3333ZM35 58.3333C32.4041 58.3333 29.8665 57.5636 27.7081 56.1214C25.5497 54.6792 23.8675 52.6293 22.8741 50.231C21.8807 47.8328 21.6208 45.1938 22.1272 42.6478C22.6336 40.1018 23.8837 37.7631 25.7192 35.9276C27.5548 34.092 29.8934 32.842 32.4394 32.3355C34.9854 31.8291 37.6244 32.089 40.0227 33.0824C42.421 34.0758 44.4708 35.7581 45.913 37.9165C47.3552 40.0749 48.125 42.6124 48.125 45.2083C48.125 46.9319 47.7855 48.6386 47.1259 50.231C46.4663 51.8234 45.4995 53.2703 44.2808 54.4891C43.062 55.7079 41.6151 56.6747 40.0227 57.3342C38.4303 57.9938 36.7236 58.3333 35 58.3333Z" fill="#9c6bff"/>
</svg>
