<svg width="80" height="80" viewBox="0 0 80 80" fill="none" xmlns="http://www.w3.org/2000/svg">
<path d="M31.713 46.4833V49.0389C31.713 50.4655 32.8107 51.6392 34.2055 51.7631V43.7592C32.8108 43.8831 31.713 45.0569 31.713 46.4833Z" fill="white"/>
<path d="M41.0421 56.5287H38.9585V64.5575H41.0421V56.5287Z" fill="white"/>
<path d="M41.0421 43.7475H38.9585V51.7762H41.0421V43.7475Z" fill="white"/>
<path d="M45.7944 56.5405V64.5444C47.1893 64.4203 48.2869 63.2467 48.2869 61.82V59.2644C48.2869 57.838 47.1893 56.6644 45.7944 56.5405Z" fill="white"/>
<path d="M42.3763 5.62109V0H37.6236V5.62109L15.3927 18.9695V80H64.6072V18.9695L42.3763 5.62109ZM37.6238 15.975V21.4363H42.3765V15.975C44.2888 16.8719 45.6168 18.8145 45.6168 21.0625C45.6168 24.1594 43.0972 26.6791 40.0002 26.6791C36.9032 26.6791 34.3836 24.1594 34.3836 21.0625C34.3835 18.8145 35.7115 16.8719 37.6238 15.975ZM53.0396 61.8202C53.0396 65.868 49.8111 69.1736 45.7944 69.3031V73.293H41.0418V69.3094H38.9582V73.293H34.2055V69.3094H28.4821V64.5567H34.2055V56.5219C30.1888 56.3925 26.9604 53.0867 26.9604 49.0389V46.4833C26.9604 42.4355 30.1888 39.13 34.2055 39.0005V35.0106H38.9582V38.9942H41.0418V35.0106H45.7944V38.9942H51.5179V43.7469H45.7944V51.7817C49.8111 51.9111 53.0396 55.2169 53.0396 59.2645V61.8202Z" fill="white"/>
</svg>
