<svg width="61" height="60" viewBox="0 0 61 60" fill="none" xmlns="http://www.w3.org/2000/svg">
<path fill-rule="evenodd" clip-rule="evenodd" d="M36.1183 27.5668C40.8919 28.7709 44.8585 32.0343 46.9864 36.3344L40.044 33.6011L38.812 33.1159C38.7913 33.1068 38.7705 33.0979 38.7493 33.0896C37.8114 32.7225 36.7495 33.1879 36.383 34.1259L36.0157 35.0661L30.2744 49.7723C30.2598 49.8034 30.2458 49.8343 30.2332 49.8667C29.8662 50.8043 30.3306 51.8662 31.2682 52.2332L32.2258 52.608L33.7854 53.2167C33.8055 53.2255 33.8256 53.2341 33.8461 53.2421C34.7838 53.6077 35.8449 53.1429 36.2112 52.2053L36.5828 51.2542L40.6801 40.7561L48.6702 43.9021V44.8277V59.9999H31.958H17.513H0.80072V44.8277V43.5348C0.80072 43.4158 0.802012 43.2947 0.804595 43.1763C0.967596 35.6672 6.27311 29.3525 13.3526 27.5669C15.6818 31.3735 19.9115 33.9184 24.735 33.9202C29.5586 33.9184 33.789 31.3734 36.1183 27.5668Z" fill="#9c6bff"/>
<path fill-rule="evenodd" clip-rule="evenodd" d="M38.0348 13.1662C38.0348 5.89377 32.0849 -3.05176e-05 24.735 -3.05176e-05C17.3875 -3.05176e-05 11.4393 5.89137 11.4393 13.1662C11.4393 20.4285 17.3891 26.3198 24.735 26.3198C32.0841 26.3207 38.0348 20.4284 38.0348 13.1662Z" fill="#9c6bff"/>
<path d="M31.2139 50.1639L36.8288 35.7921L37.3346 34.4976C37.4971 34.0815 37.9624 33.8746 38.3786 34.0371C38.3947 34.0434 38.4105 34.0503 38.4261 34.0576L39.6712 34.5478L49.0383 38.2358L51.585 28.9395L48.261 28.0609C47.8291 27.9468 47.5709 27.5063 47.6851 27.0745C47.7487 26.8338 47.9143 26.6474 48.1232 26.5491L54.967 22.5667C55.3531 22.342 55.8467 22.4702 56.0713 22.8563C56.0834 22.8769 56.0944 22.898 56.1043 22.9192L60.0868 29.763C60.3114 30.1491 60.1833 30.6427 59.7972 30.8673C59.5852 30.9907 59.3404 31.0068 59.1254 30.9324L55.8369 30.0633L52.6337 41.756L52.2252 43.247C52.1072 43.6779 51.6623 43.9315 51.2315 43.8135C51.1861 43.8011 51.1427 43.785 51.1014 43.7657L49.7081 43.217L40.1036 39.4355L35.2597 51.8335C35.0972 52.2496 34.6318 52.4565 34.2157 52.294C34.2002 52.2879 34.185 52.2813 34.17 52.2744L31.6397 51.284C31.2237 51.1212 31.0179 50.6534 31.1807 50.2375C31.1907 50.2121 31.2017 50.1876 31.2139 50.1639Z" fill="#9c6bff"/>
</svg>
