<svg xmlns="http://www.w3.org/2000/svg" width="571" height="221" fill="none"><g stroke-opacity=".11" stroke-width=".338" clip-path="url(#a)"><path stroke="url(#b)" d="M151.273-31.047v210.824"/><path stroke="url(#c)" d="M186.797-31.047v210.824"/><path stroke="url(#d)" d="M222.324-31.047v210.824"/><path stroke="url(#e)" d="M257.848-31.047v210.824"/><path stroke="url(#f)" d="M293.375-31.047v210.824"/><path stroke="url(#g)" d="M328.898-31.047v210.824"/><path stroke="url(#h)" d="M364.422-31.047v210.824"/><path stroke="url(#i)" d="M399.949-31.047v210.824"/><path stroke="url(#j)" d="M435.473-31.047v210.824"/><path stroke="url(#k)" d="M471-31.047v210.824"/><path stroke="url(#l)" d="M506.523-31.047v210.824"/><path stroke="url(#m)" d="M542.047-31.047v210.824"/><path stroke="url(#n)" d="M755.699 3.785h-568.4"/><path stroke="url(#o)" d="M755.699 39.31h-568.4"/><path stroke="url(#p)" d="M755.699 74.836h-568.4"/><path stroke="url(#q)" d="M755.699 110.359h-568.4"/><path stroke="url(#r)" d="M755.699 145.885h-568.4"/><path stroke="url(#s)" d="M755.699 181.41h-568.4"/></g><defs><linearGradient id="b" x1="151.773" x2="151.773" y1="179.777" y2="-31.047" gradientUnits="userSpaceOnUse"><stop stop-color="#fff" stop-opacity=".8"/><stop offset="1" stop-color="#fff" stop-opacity="0"/></linearGradient><linearGradient id="c" x1="187.297" x2="187.297" y1="-31.047" y2="179.777" gradientUnits="userSpaceOnUse"><stop stop-color="#fff" stop-opacity=".8"/><stop offset="1" stop-color="#fff" stop-opacity="0"/></linearGradient><linearGradient id="d" x1="222.824" x2="222.824" y1="179.777" y2="-31.047" gradientUnits="userSpaceOnUse"><stop stop-color="#fff" stop-opacity="0"/><stop offset="1" stop-color="#fff" stop-opacity=".8"/></linearGradient><linearGradient id="e" x1="258.348" x2="258.348" y1="179.777" y2="-31.047" gradientUnits="userSpaceOnUse"><stop stop-color="#fff" stop-opacity="0"/><stop offset="1" stop-color="#fff" stop-opacity=".8"/></linearGradient><linearGradient id="f" x1="293.875" x2="293.875" y1="179.777" y2="-31.047" gradientUnits="userSpaceOnUse"><stop stop-color="#fff" stop-opacity="0"/><stop offset="1" stop-color="#fff" stop-opacity=".8"/></linearGradient><linearGradient id="g" x1="329.398" x2="329.398" y1="179.777" y2="-31.047" gradientUnits="userSpaceOnUse"><stop stop-color="#fff" stop-opacity="0"/><stop offset="1" stop-color="#fff" stop-opacity=".8"/></linearGradient><linearGradient id="h" x1="364.922" x2="364.922" y1="179.777" y2="-31.047" gradientUnits="userSpaceOnUse"><stop stop-color="#fff" stop-opacity="0"/><stop offset="1" stop-color="#fff" stop-opacity=".8"/></linearGradient><linearGradient id="i" x1="400.449" x2="400.449" y1="179.777" y2="-31.047" gradientUnits="userSpaceOnUse"><stop stop-color="#fff" stop-opacity="0"/><stop offset="1" stop-color="#fff" stop-opacity=".8"/></linearGradient><linearGradient id="j" x1="435.973" x2="435.973" y1="179.777" y2="-31.047" gradientUnits="userSpaceOnUse"><stop stop-color="#fff" stop-opacity="0"/><stop offset="1" stop-color="#fff" stop-opacity=".8"/></linearGradient><linearGradient id="k" x1="471.5" x2="471.5" y1="179.777" y2="-31.047" gradientUnits="userSpaceOnUse"><stop stop-color="#fff" stop-opacity="0"/><stop offset="1" stop-color="#fff" stop-opacity=".8"/></linearGradient><linearGradient id="l" x1="507.023" x2="507.023" y1="179.777" y2="-31.047" gradientUnits="userSpaceOnUse"><stop stop-color="#fff" stop-opacity="0"/><stop offset="1" stop-color="#fff" stop-opacity=".8"/></linearGradient><linearGradient id="m" x1="542.547" x2="542.547" y1="179.777" y2="-31.047" gradientUnits="userSpaceOnUse"><stop stop-color="#fff" stop-opacity="0"/><stop offset="1" stop-color="#fff" stop-opacity=".8"/></linearGradient><linearGradient id="n" x1="471.499" x2="471.499" y1="4.785" y2="3.785" gradientUnits="userSpaceOnUse"><stop stop-color="#fff"/><stop offset="1" stop-color="#fff" stop-opacity=".41"/></linearGradient><linearGradient id="o" x1="471.499" x2="471.499" y1="40.31" y2="39.31" gradientUnits="userSpaceOnUse"><stop stop-color="#fff"/><stop offset="1" stop-color="#fff" stop-opacity=".41"/></linearGradient><linearGradient id="p" x1="471.499" x2="471.499" y1="75.836" y2="74.836" gradientUnits="userSpaceOnUse"><stop stop-color="#fff"/><stop offset="1" stop-color="#fff" stop-opacity=".41"/></linearGradient><linearGradient id="q" x1="471.499" x2="471.499" y1="111.359" y2="110.359" gradientUnits="userSpaceOnUse"><stop stop-color="#fff"/><stop offset="1" stop-color="#fff" stop-opacity=".41"/></linearGradient><linearGradient id="r" x1="471.499" x2="471.499" y1="146.885" y2="145.885" gradientUnits="userSpaceOnUse"><stop stop-color="#fff"/><stop offset="1" stop-color="#fff" stop-opacity=".41"/></linearGradient><linearGradient id="s" x1="471.499" x2="471.499" y1="182.41" y2="181.41" gradientUnits="userSpaceOnUse"><stop stop-color="#fff"/><stop offset="1" stop-color="#fff" stop-opacity=".41"/></linearGradient><clipPath id="a"><path fill="#fff" d="M0 0h571v220.206H0z"/></clipPath></defs></svg>