<svg width="147" height="42" viewBox="0 0 147 42" fill="none" xmlns="http://www.w3.org/2000/svg">
<path d="M43.6754 0.146423L23.4776 20.6469L23.5465 10.5064L21.0562 10.548L1.90415 10.6665L12.3137 0.146423H43.6754Z" fill="#8F61FF"/>
<path d="M44.119 11.2158L44.0101 21.8272L24.1422 41.8536L0 13.1184L12.8839 12.9278L24.091 26.0903L38.1439 11.1101L44.119 11.2158Z" fill="#8F61FF"/>
<path d="M58.431 11.6H63.615C65.3644 11.6 66.6764 12.0693 67.551 13.008C68.4257 13.9467 68.863 15.3227 68.863 17.136V19.344C68.863 21.1573 68.4257 22.5333 67.551 23.472C66.6764 24.4107 65.3644 24.88 63.615 24.88H61.951V34H58.431V11.6ZM63.615 21.68C64.191 21.68 64.6177 21.52 64.895 21.2C65.1937 20.88 65.343 20.336 65.343 19.568V16.912C65.343 16.144 65.1937 15.6 64.895 15.28C64.6177 14.96 64.191 14.8 63.615 14.8H61.951V21.68H63.615ZM70.7748 11.6H75.9908C77.8041 11.6 79.1268 12.0267 79.9588 12.88C80.7908 13.712 81.2068 15.0027 81.2068 16.752V18.128C81.2068 20.4533 80.4388 21.9253 78.9028 22.544V22.608C79.7561 22.864 80.3534 23.3867 80.6948 24.176C81.0574 24.9653 81.2388 26.0213 81.2388 27.344V31.28C81.2388 31.92 81.2601 32.4427 81.3028 32.848C81.3454 33.232 81.4521 33.616 81.6228 34H78.0388C77.9108 33.6373 77.8254 33.296 77.7828 32.976C77.7401 32.656 77.7188 32.08 77.7188 31.248V27.152C77.7188 26.128 77.5481 25.4133 77.2068 25.008C76.8868 24.6027 76.3214 24.4 75.5108 24.4H74.2948V34H70.7748V11.6ZM75.5748 21.2C76.2788 21.2 76.8014 21.0187 77.1428 20.656C77.5054 20.2933 77.6868 19.6853 77.6868 18.832V17.104C77.6868 16.2933 77.5374 15.7067 77.2388 15.344C76.9614 14.9813 76.5134 14.8 75.8948 14.8H74.2948V21.2H75.5748ZM83.681 11.6H93.281V14.8H87.201V20.72H92.033V23.92H87.201V30.8H93.281V34H83.681V11.6ZM94.6645 30.864L101.193 14.8H94.9845V11.6H104.969V14.736L98.4405 30.8H104.969V34H94.6645V30.864ZM112.05 34.32C110.322 34.32 109 33.8293 108.082 32.848C107.165 31.8667 106.706 30.48 106.706 28.688V16.912C106.706 15.12 107.165 13.7333 108.082 12.752C109 11.7707 110.322 11.28 112.05 11.28C113.778 11.28 115.101 11.7707 116.018 12.752C116.936 13.7333 117.394 15.12 117.394 16.912V28.688C117.394 30.48 116.936 31.8667 116.018 32.848C115.101 33.8293 113.778 34.32 112.05 34.32ZM112.05 31.12C113.266 31.12 113.874 30.384 113.874 28.912V16.688C113.874 15.216 113.266 14.48 112.05 14.48C110.834 14.48 110.226 15.216 110.226 16.688V28.912C110.226 30.384 110.834 31.12 112.05 31.12ZM119.775 11.6H124.959C126.708 11.6 128.02 12.0693 128.895 13.008C129.769 13.9467 130.207 15.3227 130.207 17.136V19.344C130.207 21.1573 129.769 22.5333 128.895 23.472C128.02 24.4107 126.708 24.88 124.959 24.88H123.295V34H119.775V11.6ZM124.959 21.68C125.535 21.68 125.961 21.52 126.239 21.2C126.537 20.88 126.687 20.336 126.687 19.568V16.912C126.687 16.144 126.537 15.6 126.239 15.28C125.961 14.96 125.535 14.8 124.959 14.8H123.295V21.68H124.959ZM134.933 14.8H131.253V11.6H142.133V14.8H138.453V34H134.933V14.8Z" fill="white"/>
</svg>
