<svg xmlns="http://www.w3.org/2000/svg" viewBox="0 0 293.33 62.53"><defs><style>.cls-1{fill:#8f61ff;}.cls-2{fill:#fff;}</style></defs><title>Prezopt full logo1</title><g id="Layer_2" data-name="Layer 2"><g id="OBJECTS"><polygon class="cls-1" points="62.91 0 32.62 30.74 32.73 15.53 28.99 15.6 0.28 15.77 15.88 0 62.91 0"/><polygon class="cls-1" points="63.57 16.6 63.41 32.51 40.61 55.54 33.62 62.53 0 19.21 16.74 19.16 33.62 36.04 53.06 16.6 63.57 16.6"/><path class="cls-2" d="M99.55,7.64s11.65.2,9.43,10.79c-2.22,10.34-13.87,10.14-13.87,10.14h-5.5l-3,14.17c0,.21,0,.21-.3.21H80.53c-.3,0-.66-.41-.61-.61l4.29-20.13c0-.2,0-.2.25-.2l5.15-.15c-1.21-2.67-2.32-5.5-3.48-8.17l1.11-5.85c.05-.2,0-.2.3-.2ZM96.47,22c1.82,0,5.3-1.21,5.9-4.24.81-3.73-3.13-3.53-4.24-3.53H93.34Z"/><path class="cls-2" d="M115.94,42.74c0,.21,0,.21-.3.21h-5.76c-.25,0-.6-.41-.55-.61l7.31-34.5c0-.2,0-.2.26-.2h11.4c2,0,12.15.3,9.88,10.84-1.11,5.25-4.39,7.92-8.32,9.38.91,4.9,2.27,9.74,3.28,14.88.25.11.35.21,0,.21h-6.31c-.15,0-.7-.31-.65-.41L122.8,28.67h-3.89Zm9.28-20.53c1.46,0,5.55-.4,6.41-4.43.8-3.74-3.13-3.74-4.19-3.74H122l-1.71,8.17Z"/><path class="cls-2" d="M164.06,22.21a.64.64,0,0,1,.55.61l-1.16,5.5c0,.2.05.2-.25.2h-14l-1.72,8.07h16.39c.31,0,.66.4.61.6l-1.16,5.55c-.05.21,0,.21-.3.21H140.15c-.26,0-.61-.41-.56-.61l7.32-34.5c.05-.2,0-.2.25-.2H170c.3,0,.66.4.6.6l-1.16,5.6c0,.2,0,.2-.3.2h-16.9l-1.71,8.17Z"/><path class="cls-2" d="M165.92,43c-.35,0-.86-.46-.66-.76l23.26-28h-15c-.26,0-.66-.4-.61-.6l1.21-5.7c.05-.2,0-.2.25-.2h26.28c.41,0,.81.5.71.8l-23.2,28h16.39c.3,0,.61.4.56.6l-1.21,5.7c0,.21.05.21-.26.21Z"/><path class="cls-2" d="M235.78,25.59c-1.87,8.88-9.38,17.81-20.68,17.81-12,0-16-9.33-14.08-18.51,1.92-8.88,9.29-17.76,20.79-17.76C233.61,7.13,237.75,16.41,235.78,25.59Zm-6.66-.6c1.21-5.75-.91-11.45-7.67-11.45-7.36,0-12.45,6.1-13.72,12.15-1.21,5.7.86,11.35,7.72,11.35C222.72,37,227.86,31,229.12,25Z"/><path class="cls-2" d="M257.87,7.64c1.41,0,12.11.4,9.89,11-2.17,10.24-13,10.14-13.88,10.14h-5.49l-3,14.08c0,.2.05.2-.25.2h-5.75c-.25,0-.66-.41-.61-.61l7.37-34.6c.05-.2,0-.2.25-.2Zm-3.13,14.62c.91,0,5.6-.3,6.46-4.33.81-3.79-3.38-3.79-4.19-3.79h-5.5l-1.76,8.12Z"/><path class="cls-2" d="M292.22,13.79c-.05.2,0,.15-.3.15h-7l-6.1,28.8c-.05.21,0,.21-.25.21h-5.7c-.3,0-.61-.41-.56-.61l6-28.4h-6.46c-.3,0-.66-.35-.61-.55l1.11-5.25c.05-.2,0-.2.31-.2h20c.31,0,.66.4.61.6Z"/></g></g></svg>